<svg height="512pt" viewBox="0 0 512 512" width="512pt" xmlns="http://www.w3.org/2000/svg"><path d="m512 256c0 141.386719-114.613281 256-256 256s-256-114.613281-256-256 114.613281-256 256-256 256 114.613281 256 256zm0 0" fill="#f8d539"/><g fill="#fff"><path d="m448 208h32v32h-32zm0 0"/><path d="m448 272h32v32h-32zm0 0"/><path d="m277.664062 442.351562c-14.820312.023438-29.34375-4.136718-41.902343-12-20.925781-12.949218-34.773438-34.757812-37.601563-59.199218-2.722656-23.652344 5.277344-47.28125 21.808594-64.417969.667969-6.183594-1.5-12.34375-5.898438-16.746094-4.398437-4.402343-10.554687-6.574219-16.742187-5.910156-28.878906 27.90625-73.972656 30.078125-105.398437 5.074219-31.425782-25.007813-39.445313-69.433594-18.742188-103.84375 20.703125-34.414063 63.710938-48.144532 100.523438-32.09375 19.308593 8.09375 34.496093 23.6875 42.082031 43.199218l5.183593 4.59375c5.238282 4.648438 12.480469 6.304688 19.21875 4.398438 6.738282-1.90625 12.039063-7.117188 14.0625-13.820312l1.742188-5.984376c-5.167969-25.117187 2.050781-51.1875 19.402344-70.070312 17.351562-18.882812 42.71875-28.273438 68.183594-25.242188 24.613281 2.949219 46.5 17.074219 59.324218 38.285157 16.355469 27.171875 15.085938 61.441406-3.234375 87.328125-18.316406 25.882812-50.214843 38.480468-81.277343 32.097656l-5.871094 1.761719c-6.703125 2.019531-11.914063 7.320312-13.820313 14.058593-1.910156 6.738282-.25 13.984376 4.398438 19.21875l4.589843 5.167969c9.945313 3.910157 18.984376 9.8125 26.5625 17.34375 17.289063 17.199219 25.738282 41.375 22.925782 65.601563-2.824219 24.441406-16.675782 46.25-37.597656 59.199218-12.566407 7.871094-27.097657 12.03125-41.921876 12zm0 0"/></g></svg>